<mxfile host="app.diagrams.net" modified="2024-04-07T08:29:30.712Z" agent="Mozilla/5.0 (Windows NT 10.0; Win64; x64) AppleWebKit/537.36 (KHTML, like Gecko) Chrome/120.0.0.0 YaBrowser/24.1.0.0 Safari/537.36" version="24.2.2" etag="v_ccgsqjwKRn-jsXlIZk" type="device">
  <diagram id="jtDGCLaPXaIhu-0UFEpr" name="Страница — 1">
    <mxGraphModel dx="1555" dy="1071" grid="0" gridSize="10" guides="1" tooltips="1" connect="1" arrows="1" fold="1" page="0" pageScale="1" pageWidth="827" pageHeight="1169" math="0" shadow="0">
      <root>
        <mxCell id="0" />
        <mxCell id="1" parent="0" />
        <mxCell id="9IXPJnxXttqhWxvoYLWS-1" value="Table" style="swimlane;fontStyle=1;align=center;verticalAlign=top;childLayout=stackLayout;horizontal=1;startSize=26;horizontalStack=0;resizeParent=1;resizeParentMax=0;resizeLast=0;collapsible=1;marginBottom=0;whiteSpace=wrap;html=1;" vertex="1" parent="1">
          <mxGeometry x="20" y="20" width="180" height="230" as="geometry">
            <mxRectangle x="101" y="384" width="52" height="26" as="alternateBounds" />
          </mxGeometry>
        </mxCell>
        <mxCell id="9IXPJnxXttqhWxvoYLWS-2" value="- _size: int" style="text;strokeColor=none;fillColor=none;align=left;verticalAlign=top;spacingLeft=4;spacingRight=4;overflow=hidden;rotatable=0;points=[[0,0.5],[1,0.5]];portConstraint=eastwest;whiteSpace=wrap;html=1;" vertex="1" parent="9IXPJnxXttqhWxvoYLWS-1">
          <mxGeometry y="26" width="180" height="26" as="geometry" />
        </mxCell>
        <mxCell id="9IXPJnxXttqhWxvoYLWS-3" value="- _fulness: int" style="text;strokeColor=none;fillColor=none;align=left;verticalAlign=top;spacingLeft=4;spacingRight=4;overflow=hidden;rotatable=0;points=[[0,0.5],[1,0.5]];portConstraint=eastwest;whiteSpace=wrap;html=1;" vertex="1" parent="9IXPJnxXttqhWxvoYLWS-1">
          <mxGeometry y="52" width="180" height="26" as="geometry" />
        </mxCell>
        <mxCell id="9IXPJnxXttqhWxvoYLWS-4" value="- _elems: TableNode**" style="text;strokeColor=none;fillColor=none;align=left;verticalAlign=top;spacingLeft=4;spacingRight=4;overflow=hidden;rotatable=0;points=[[0,0.5],[1,0.5]];portConstraint=eastwest;whiteSpace=wrap;html=1;" vertex="1" parent="9IXPJnxXttqhWxvoYLWS-1">
          <mxGeometry y="78" width="180" height="26" as="geometry" />
        </mxCell>
        <mxCell id="9IXPJnxXttqhWxvoYLWS-5" value="" style="line;strokeWidth=1;fillColor=none;align=left;verticalAlign=middle;spacingTop=-1;spacingLeft=3;spacingRight=3;rotatable=0;labelPosition=right;points=[];portConstraint=eastwest;strokeColor=inherit;" vertex="1" parent="9IXPJnxXttqhWxvoYLWS-1">
          <mxGeometry y="104" width="180" height="8" as="geometry" />
        </mxCell>
        <mxCell id="9IXPJnxXttqhWxvoYLWS-6" value="&lt;div style=&quot;text-align: center;&quot;&gt;&lt;span style=&quot;background-color: initial;&quot;&gt;+ Table&lt;/span&gt;&lt;span style=&quot;background-color: initial;&quot;&gt;(int size)&lt;/span&gt;&lt;/div&gt;" style="text;strokeColor=none;fillColor=none;align=left;verticalAlign=top;spacingLeft=4;spacingRight=4;overflow=hidden;rotatable=0;points=[[0,0.5],[1,0.5]];portConstraint=eastwest;whiteSpace=wrap;html=1;" vertex="1" parent="9IXPJnxXttqhWxvoYLWS-1">
          <mxGeometry y="112" width="180" height="26" as="geometry" />
        </mxCell>
        <mxCell id="9IXPJnxXttqhWxvoYLWS-8" value="+ ~Table()" style="text;strokeColor=none;fillColor=none;align=left;verticalAlign=top;spacingLeft=4;spacingRight=4;overflow=hidden;rotatable=0;points=[[0,0.5],[1,0.5]];portConstraint=eastwest;whiteSpace=wrap;html=1;" vertex="1" parent="9IXPJnxXttqhWxvoYLWS-1">
          <mxGeometry y="138" width="180" height="26" as="geometry" />
        </mxCell>
        <mxCell id="9IXPJnxXttqhWxvoYLWS-10" value="+ add(string key, double value): double" style="text;strokeColor=none;fillColor=none;align=left;verticalAlign=top;spacingLeft=4;spacingRight=4;overflow=hidden;rotatable=0;points=[[0,0.5],[1,0.5]];portConstraint=eastwest;whiteSpace=wrap;html=1;" vertex="1" parent="9IXPJnxXttqhWxvoYLWS-1">
          <mxGeometry y="164" width="180" height="40" as="geometry" />
        </mxCell>
        <mxCell id="9IXPJnxXttqhWxvoYLWS-11" value="+ toString(): string" style="text;strokeColor=none;fillColor=none;align=left;verticalAlign=top;spacingLeft=4;spacingRight=4;overflow=hidden;rotatable=0;points=[[0,0.5],[1,0.5]];portConstraint=eastwest;whiteSpace=wrap;html=1;" vertex="1" parent="9IXPJnxXttqhWxvoYLWS-1">
          <mxGeometry y="204" width="180" height="26" as="geometry" />
        </mxCell>
        <mxCell id="9IXPJnxXttqhWxvoYLWS-47" style="edgeStyle=orthogonalEdgeStyle;rounded=0;orthogonalLoop=1;jettySize=auto;html=1;entryX=0;entryY=0.5;entryDx=0;entryDy=0;" edge="1" parent="1" source="9IXPJnxXttqhWxvoYLWS-36" target="9IXPJnxXttqhWxvoYLWS-4">
          <mxGeometry relative="1" as="geometry" />
        </mxCell>
        <mxCell id="9IXPJnxXttqhWxvoYLWS-36" value="TableNode" style="swimlane;fontStyle=1;align=center;verticalAlign=top;childLayout=stackLayout;horizontal=1;startSize=26;horizontalStack=0;resizeParent=1;resizeParentMax=0;resizeLast=0;collapsible=1;marginBottom=0;whiteSpace=wrap;html=1;" vertex="1" parent="1">
          <mxGeometry x="-200" y="-116" width="220" height="136" as="geometry">
            <mxRectangle x="101" y="384" width="52" height="26" as="alternateBounds" />
          </mxGeometry>
        </mxCell>
        <mxCell id="9IXPJnxXttqhWxvoYLWS-37" value="- key: string" style="text;strokeColor=none;fillColor=none;align=left;verticalAlign=top;spacingLeft=4;spacingRight=4;overflow=hidden;rotatable=0;points=[[0,0.5],[1,0.5]];portConstraint=eastwest;whiteSpace=wrap;html=1;" vertex="1" parent="9IXPJnxXttqhWxvoYLWS-36">
          <mxGeometry y="26" width="220" height="26" as="geometry" />
        </mxCell>
        <mxCell id="9IXPJnxXttqhWxvoYLWS-38" value="- value: double" style="text;strokeColor=none;fillColor=none;align=left;verticalAlign=top;spacingLeft=4;spacingRight=4;overflow=hidden;rotatable=0;points=[[0,0.5],[1,0.5]];portConstraint=eastwest;whiteSpace=wrap;html=1;" vertex="1" parent="9IXPJnxXttqhWxvoYLWS-36">
          <mxGeometry y="52" width="220" height="26" as="geometry" />
        </mxCell>
        <mxCell id="9IXPJnxXttqhWxvoYLWS-40" value="" style="line;strokeWidth=1;fillColor=none;align=left;verticalAlign=middle;spacingTop=-1;spacingLeft=3;spacingRight=3;rotatable=0;labelPosition=right;points=[];portConstraint=eastwest;strokeColor=inherit;" vertex="1" parent="9IXPJnxXttqhWxvoYLWS-36">
          <mxGeometry y="78" width="220" height="8" as="geometry" />
        </mxCell>
        <mxCell id="9IXPJnxXttqhWxvoYLWS-41" value="+ TableNode(string key, double value)" style="text;strokeColor=none;fillColor=none;align=left;verticalAlign=top;spacingLeft=4;spacingRight=4;overflow=hidden;rotatable=0;points=[[0,0.5],[1,0.5]];portConstraint=eastwest;whiteSpace=wrap;html=1;" vertex="1" parent="9IXPJnxXttqhWxvoYLWS-36">
          <mxGeometry y="86" width="220" height="24" as="geometry" />
        </mxCell>
        <mxCell id="9IXPJnxXttqhWxvoYLWS-46" value="+ toString(): string" style="text;strokeColor=none;fillColor=none;align=left;verticalAlign=top;spacingLeft=4;spacingRight=4;overflow=hidden;rotatable=0;points=[[0,0.5],[1,0.5]];portConstraint=eastwest;whiteSpace=wrap;html=1;" vertex="1" parent="9IXPJnxXttqhWxvoYLWS-36">
          <mxGeometry y="110" width="220" height="26" as="geometry" />
        </mxCell>
        <mxCell id="9IXPJnxXttqhWxvoYLWS-67" style="edgeStyle=orthogonalEdgeStyle;rounded=0;orthogonalLoop=1;jettySize=auto;html=1;entryX=0;entryY=0.5;entryDx=0;entryDy=0;" edge="1" parent="1" source="9IXPJnxXttqhWxvoYLWS-48" target="9IXPJnxXttqhWxvoYLWS-57">
          <mxGeometry relative="1" as="geometry" />
        </mxCell>
        <mxCell id="9IXPJnxXttqhWxvoYLWS-48" value="TableNode" style="swimlane;fontStyle=1;align=center;verticalAlign=top;childLayout=stackLayout;horizontal=1;startSize=26;horizontalStack=0;resizeParent=1;resizeParentMax=0;resizeLast=0;collapsible=1;marginBottom=0;whiteSpace=wrap;html=1;" vertex="1" parent="1">
          <mxGeometry x="250" y="-186" width="200" height="256" as="geometry">
            <mxRectangle x="101" y="384" width="52" height="26" as="alternateBounds" />
          </mxGeometry>
        </mxCell>
        <mxCell id="9IXPJnxXttqhWxvoYLWS-49" value="- key: int" style="text;strokeColor=none;fillColor=none;align=left;verticalAlign=top;spacingLeft=4;spacingRight=4;overflow=hidden;rotatable=0;points=[[0,0.5],[1,0.5]];portConstraint=eastwest;whiteSpace=wrap;html=1;" vertex="1" parent="9IXPJnxXttqhWxvoYLWS-48">
          <mxGeometry y="26" width="200" height="26" as="geometry" />
        </mxCell>
        <mxCell id="9IXPJnxXttqhWxvoYLWS-50" value="- value: double" style="text;strokeColor=none;fillColor=none;align=left;verticalAlign=top;spacingLeft=4;spacingRight=4;overflow=hidden;rotatable=0;points=[[0,0.5],[1,0.5]];portConstraint=eastwest;whiteSpace=wrap;html=1;" vertex="1" parent="9IXPJnxXttqhWxvoYLWS-48">
          <mxGeometry y="52" width="200" height="26" as="geometry" />
        </mxCell>
        <mxCell id="9IXPJnxXttqhWxvoYLWS-55" value="- str: string" style="text;strokeColor=none;fillColor=none;align=left;verticalAlign=top;spacingLeft=4;spacingRight=4;overflow=hidden;rotatable=0;points=[[0,0.5],[1,0.5]];portConstraint=eastwest;whiteSpace=wrap;html=1;" vertex="1" parent="9IXPJnxXttqhWxvoYLWS-48">
          <mxGeometry y="78" width="200" height="26" as="geometry" />
        </mxCell>
        <mxCell id="9IXPJnxXttqhWxvoYLWS-65" value="- left: Tree*" style="text;strokeColor=none;fillColor=none;align=left;verticalAlign=top;spacingLeft=4;spacingRight=4;overflow=hidden;rotatable=0;points=[[0,0.5],[1,0.5]];portConstraint=eastwest;whiteSpace=wrap;html=1;" vertex="1" parent="9IXPJnxXttqhWxvoYLWS-48">
          <mxGeometry y="104" width="200" height="26" as="geometry" />
        </mxCell>
        <mxCell id="9IXPJnxXttqhWxvoYLWS-66" value="- right: Tree*" style="text;strokeColor=none;fillColor=none;align=left;verticalAlign=top;spacingLeft=4;spacingRight=4;overflow=hidden;rotatable=0;points=[[0,0.5],[1,0.5]];portConstraint=eastwest;whiteSpace=wrap;html=1;" vertex="1" parent="9IXPJnxXttqhWxvoYLWS-48">
          <mxGeometry y="130" width="200" height="26" as="geometry" />
        </mxCell>
        <mxCell id="9IXPJnxXttqhWxvoYLWS-51" value="" style="line;strokeWidth=1;fillColor=none;align=left;verticalAlign=middle;spacingTop=-1;spacingLeft=3;spacingRight=3;rotatable=0;labelPosition=right;points=[];portConstraint=eastwest;strokeColor=inherit;" vertex="1" parent="9IXPJnxXttqhWxvoYLWS-48">
          <mxGeometry y="156" width="200" height="8" as="geometry" />
        </mxCell>
        <mxCell id="9IXPJnxXttqhWxvoYLWS-52" value="+ TableNode(int key, double value, string str)" style="text;strokeColor=none;fillColor=none;align=left;verticalAlign=top;spacingLeft=4;spacingRight=4;overflow=hidden;rotatable=0;points=[[0,0.5],[1,0.5]];portConstraint=eastwest;whiteSpace=wrap;html=1;" vertex="1" parent="9IXPJnxXttqhWxvoYLWS-48">
          <mxGeometry y="164" width="200" height="40" as="geometry" />
        </mxCell>
        <mxCell id="9IXPJnxXttqhWxvoYLWS-53" value="+ ~TableNode()" style="text;strokeColor=none;fillColor=none;align=left;verticalAlign=top;spacingLeft=4;spacingRight=4;overflow=hidden;rotatable=0;points=[[0,0.5],[1,0.5]];portConstraint=eastwest;whiteSpace=wrap;html=1;" vertex="1" parent="9IXPJnxXttqhWxvoYLWS-48">
          <mxGeometry y="204" width="200" height="26" as="geometry" />
        </mxCell>
        <mxCell id="9IXPJnxXttqhWxvoYLWS-54" value="+ toString(): string" style="text;strokeColor=none;fillColor=none;align=left;verticalAlign=top;spacingLeft=4;spacingRight=4;overflow=hidden;rotatable=0;points=[[0,0.5],[1,0.5]];portConstraint=eastwest;whiteSpace=wrap;html=1;" vertex="1" parent="9IXPJnxXttqhWxvoYLWS-48">
          <mxGeometry y="230" width="200" height="26" as="geometry" />
        </mxCell>
        <mxCell id="9IXPJnxXttqhWxvoYLWS-56" value="OrderedTable" style="swimlane;fontStyle=1;align=center;verticalAlign=top;childLayout=stackLayout;horizontal=1;startSize=26;horizontalStack=0;resizeParent=1;resizeParentMax=0;resizeLast=0;collapsible=1;marginBottom=0;whiteSpace=wrap;html=1;" vertex="1" parent="1">
          <mxGeometry x="450" y="70" width="163.5" height="180" as="geometry">
            <mxRectangle x="101" y="384" width="52" height="26" as="alternateBounds" />
          </mxGeometry>
        </mxCell>
        <mxCell id="9IXPJnxXttqhWxvoYLWS-57" value="- root: TableNode*" style="text;strokeColor=none;fillColor=none;align=left;verticalAlign=top;spacingLeft=4;spacingRight=4;overflow=hidden;rotatable=0;points=[[0,0.5],[1,0.5]];portConstraint=eastwest;whiteSpace=wrap;html=1;" vertex="1" parent="9IXPJnxXttqhWxvoYLWS-56">
          <mxGeometry y="26" width="163.5" height="26" as="geometry" />
        </mxCell>
        <mxCell id="9IXPJnxXttqhWxvoYLWS-60" value="" style="line;strokeWidth=1;fillColor=none;align=left;verticalAlign=middle;spacingTop=-1;spacingLeft=3;spacingRight=3;rotatable=0;labelPosition=right;points=[];portConstraint=eastwest;strokeColor=inherit;" vertex="1" parent="9IXPJnxXttqhWxvoYLWS-56">
          <mxGeometry y="52" width="163.5" height="8" as="geometry" />
        </mxCell>
        <mxCell id="9IXPJnxXttqhWxvoYLWS-61" value="&lt;div style=&quot;text-align: center;&quot;&gt;&lt;span style=&quot;background-color: initial;&quot;&gt;+ OrderedTable&lt;/span&gt;&lt;span style=&quot;background-color: initial;&quot;&gt;()&lt;/span&gt;&lt;/div&gt;" style="text;strokeColor=none;fillColor=none;align=left;verticalAlign=top;spacingLeft=4;spacingRight=4;overflow=hidden;rotatable=0;points=[[0,0.5],[1,0.5]];portConstraint=eastwest;whiteSpace=wrap;html=1;" vertex="1" parent="9IXPJnxXttqhWxvoYLWS-56">
          <mxGeometry y="60" width="163.5" height="26" as="geometry" />
        </mxCell>
        <mxCell id="9IXPJnxXttqhWxvoYLWS-62" value="+ ~&lt;span style=&quot;text-align: center;&quot;&gt;OrderedTable&lt;/span&gt;()" style="text;strokeColor=none;fillColor=none;align=left;verticalAlign=top;spacingLeft=4;spacingRight=4;overflow=hidden;rotatable=0;points=[[0,0.5],[1,0.5]];portConstraint=eastwest;whiteSpace=wrap;html=1;" vertex="1" parent="9IXPJnxXttqhWxvoYLWS-56">
          <mxGeometry y="86" width="163.5" height="26" as="geometry" />
        </mxCell>
        <mxCell id="9IXPJnxXttqhWxvoYLWS-63" value="+ add(int key, double value, string str): double" style="text;strokeColor=none;fillColor=none;align=left;verticalAlign=top;spacingLeft=4;spacingRight=4;overflow=hidden;rotatable=0;points=[[0,0.5],[1,0.5]];portConstraint=eastwest;whiteSpace=wrap;html=1;" vertex="1" parent="9IXPJnxXttqhWxvoYLWS-56">
          <mxGeometry y="112" width="163.5" height="42" as="geometry" />
        </mxCell>
        <mxCell id="9IXPJnxXttqhWxvoYLWS-64" value="+ toString(): string" style="text;strokeColor=none;fillColor=none;align=left;verticalAlign=top;spacingLeft=4;spacingRight=4;overflow=hidden;rotatable=0;points=[[0,0.5],[1,0.5]];portConstraint=eastwest;whiteSpace=wrap;html=1;" vertex="1" parent="9IXPJnxXttqhWxvoYLWS-56">
          <mxGeometry y="154" width="163.5" height="26" as="geometry" />
        </mxCell>
      </root>
    </mxGraphModel>
  </diagram>
</mxfile>
